<mxfile host="app.diagrams.net" modified="2021-10-27T11:07:14.071Z" agent="5.0 (Windows NT 10.0; Win64; x64) AppleWebKit/537.36 (KHTML, like Gecko) Chrome/95.0.4638.54 Safari/537.36" etag="VWB479PoG3KYYdyZHfgy" version="15.5.9" type="github">
  <diagram id="0vNT8LYg6qUhfiI9m6UG" name="Page-1">
    <mxGraphModel dx="2942" dy="1162" grid="1" gridSize="10" guides="1" tooltips="1" connect="1" arrows="1" fold="1" page="1" pageScale="1" pageWidth="827" pageHeight="1169" math="0" shadow="0">
      <root>
        <mxCell id="0" />
        <mxCell id="1" parent="0" />
        <mxCell id="Aqhu028TetIap1MYIUGe-1" value="" style="whiteSpace=wrap;html=1;aspect=fixed;" vertex="1" parent="1">
          <mxGeometry x="120" y="120" width="390" height="390" as="geometry" />
        </mxCell>
        <mxCell id="Aqhu028TetIap1MYIUGe-2" value="File Generator" style="text;html=1;strokeColor=none;fillColor=none;align=center;verticalAlign=middle;whiteSpace=wrap;rounded=0;fontSize=26;" vertex="1" parent="1">
          <mxGeometry x="180" y="140" width="220" height="30" as="geometry" />
        </mxCell>
        <mxCell id="Aqhu028TetIap1MYIUGe-3" value="Generate" style="rounded=1;whiteSpace=wrap;html=1;fontSize=21;" vertex="1" parent="1">
          <mxGeometry x="140" y="450" width="110" height="40" as="geometry" />
        </mxCell>
        <mxCell id="Aqhu028TetIap1MYIUGe-4" value="Media 1" style="rounded=1;whiteSpace=wrap;html=1;fontSize=21;" vertex="1" parent="1">
          <mxGeometry x="260" y="450" width="110" height="40" as="geometry" />
        </mxCell>
        <mxCell id="Aqhu028TetIap1MYIUGe-5" value="Media 2" style="rounded=1;whiteSpace=wrap;html=1;fontSize=21;" vertex="1" parent="1">
          <mxGeometry x="380" y="450" width="110" height="40" as="geometry" />
        </mxCell>
        <mxCell id="Aqhu028TetIap1MYIUGe-6" value="" style="rounded=1;whiteSpace=wrap;html=1;fontSize=21;" vertex="1" parent="1">
          <mxGeometry x="140" y="170" width="350" height="270" as="geometry" />
        </mxCell>
        <mxCell id="Aqhu028TetIap1MYIUGe-10" value="" style="group" vertex="1" connectable="0" parent="1">
          <mxGeometry x="170" y="200" width="140" height="30" as="geometry" />
        </mxCell>
        <mxCell id="Aqhu028TetIap1MYIUGe-8" value="" style="whiteSpace=wrap;html=1;aspect=fixed;fontSize=21;" vertex="1" parent="Aqhu028TetIap1MYIUGe-10">
          <mxGeometry width="30" height="30" as="geometry" />
        </mxCell>
        <mxCell id="Aqhu028TetIap1MYIUGe-9" value="File set A" style="text;html=1;strokeColor=none;fillColor=none;align=center;verticalAlign=middle;whiteSpace=wrap;rounded=0;fontSize=21;" vertex="1" parent="Aqhu028TetIap1MYIUGe-10">
          <mxGeometry x="40" width="100" height="30" as="geometry" />
        </mxCell>
        <mxCell id="Aqhu028TetIap1MYIUGe-11" value="" style="group" vertex="1" connectable="0" parent="1">
          <mxGeometry x="170" y="240" width="140" height="30" as="geometry" />
        </mxCell>
        <mxCell id="Aqhu028TetIap1MYIUGe-12" value="" style="whiteSpace=wrap;html=1;aspect=fixed;fontSize=21;" vertex="1" parent="Aqhu028TetIap1MYIUGe-11">
          <mxGeometry width="30" height="30" as="geometry" />
        </mxCell>
        <mxCell id="Aqhu028TetIap1MYIUGe-13" value="File set B" style="text;html=1;strokeColor=none;fillColor=none;align=center;verticalAlign=middle;whiteSpace=wrap;rounded=0;fontSize=21;" vertex="1" parent="Aqhu028TetIap1MYIUGe-11">
          <mxGeometry x="40" width="100" height="30" as="geometry" />
        </mxCell>
        <mxCell id="Aqhu028TetIap1MYIUGe-14" value="" style="group" vertex="1" connectable="0" parent="1">
          <mxGeometry x="170" y="280" width="140" height="30" as="geometry" />
        </mxCell>
        <mxCell id="Aqhu028TetIap1MYIUGe-15" value="" style="whiteSpace=wrap;html=1;aspect=fixed;fontSize=21;" vertex="1" parent="Aqhu028TetIap1MYIUGe-14">
          <mxGeometry width="30" height="30" as="geometry" />
        </mxCell>
        <mxCell id="Aqhu028TetIap1MYIUGe-16" value="File set C" style="text;html=1;strokeColor=none;fillColor=none;align=center;verticalAlign=middle;whiteSpace=wrap;rounded=0;fontSize=21;" vertex="1" parent="Aqhu028TetIap1MYIUGe-14">
          <mxGeometry x="40" width="100" height="30" as="geometry" />
        </mxCell>
      </root>
    </mxGraphModel>
  </diagram>
</mxfile>
